<?xml version="1.0" standalone="no"?>
<!DOCTYPE svg PUBLIC "-//W3C//DTD SVG 20010904//EN"
 "http://www.w3.org/TR/2001/REC-SVG-20010904/DTD/svg10.dtd">
<svg version="1.0" xmlns="http://www.w3.org/2000/svg"
 width="138.000000pt" height="138.000000pt" viewBox="0 0 138.000000 138.000000"
 preserveAspectRatio="xMidYMid meet">
<metadata>
Created by potrace 1.14, written by Peter Selinger 2001-2017
</metadata>
<g transform="translate(0.000000,138.000000) scale(0.100000,-0.100000)"
fill="#000000" stroke="none">
<path d="M0 685 l0 -385 690 0 690 0 0 385 0 385 -690 0 -690 0 0 -385z m429
219 c17 -14 31 -32 31 -40 0 -21 -37 -17 -61 7 -37 37 -99 6 -99 -50 0 -55 68
-82 105 -41 10 11 29 20 41 20 20 0 22 -3 15 -22 -4 -13 -23 -34 -42 -46 -85
-59 -190 21 -165 124 19 74 114 100 175 48z m121 -14 l0 -40 45 0 45 0 0 40
c0 33 3 40 20 40 19 0 20 -7 20 -105 0 -98 -1 -105 -20 -105 -17 0 -20 7 -20
40 l0 40 -45 0 -45 0 0 -40 c0 -33 -3 -40 -20 -40 -19 0 -20 7 -20 105 0 98 1
105 20 105 17 0 20 -7 20 -40z m320 20 c0 -17 -7 -20 -45 -20 -38 0 -45 -3
-45 -19 0 -16 8 -20 43 -23 34 -2 42 -7 42 -23 0 -16 -8 -21 -42 -23 -35 -3
-43 -7 -43 -23 0 -16 7 -19 50 -19 43 0 50 -3 50 -20 0 -18 -7 -20 -75 -20
l-75 0 0 98 c0 54 3 102 7 105 3 4 35 7 70 7 56 0 63 -2 63 -20z m180 0 c0
-17 -7 -20 -40 -20 -38 0 -40 -2 -40 -30 0 -28 3 -30 35 -30 28 0 35 -4 35
-20 0 -16 -7 -20 -35 -20 -33 0 -35 -2 -35 -35 0 -31 -3 -35 -25 -35 l-25 0 0
105 0 105 65 0 c58 0 65 -2 65 -20z m-796 -352 c8 -13 8 -23 -2 -38 -9 -15
-10 -26 -2 -40 14 -27 -6 -27 -22 0 -7 11 -21 20 -30 20 -11 0 -18 -8 -18 -20
0 -11 -4 -20 -10 -20 -6 0 -10 27 -10 61 l0 60 41 -3 c27 -2 46 -9 53 -20z
m146 12 c0 -5 -13 -10 -30 -10 -20 0 -30 -5 -30 -15 0 -10 10 -15 31 -15 17 0
28 -4 24 -10 -3 -5 -17 -10 -31 -10 -15 0 -24 -6 -24 -15 0 -11 11 -15 36 -15
21 0 33 -4 29 -10 -3 -5 -24 -10 -46 -10 l-39 0 0 60 0 60 40 0 c22 0 40 -4
40 -10z m150 -5 c22 -26 -3 -65 -40 -65 -23 0 -30 -4 -30 -20 0 -11 -4 -20
-10 -20 -6 0 -10 27 -10 60 l0 60 39 0 c22 0 44 -6 51 -15z m72 -26 c6 -79 68
-76 68 2 0 22 5 39 10 39 17 0 12 -82 -7 -102 -37 -41 -93 -5 -93 62 0 53 18
52 22 -1z m234 11 c0 -14 4 -34 9 -44 11 -25 -17 -46 -62 -46 l-33 0 0 61 0
60 43 -3 c37 -3 42 -6 43 -28z m84 -20 c0 -47 2 -50 25 -50 14 0 25 -4 25 -10
0 -5 -16 -10 -35 -10 l-35 0 0 60 c0 33 4 60 10 60 6 0 10 -22 10 -50z m120
-10 c0 -33 -4 -60 -10 -60 -6 0 -10 27 -10 60 0 33 4 60 10 60 6 0 10 -27 10
-60z m152 45 c-2 -5 -14 -9 -28 -7 -14 2 -32 -2 -40 -8 -34 -29 1 -74 50 -65
29 6 30 5 12 -10 -27 -20 -52 -19 -76 5 -43 43 -12 103 49 98 20 -2 35 -7 33
-13z"/>
<path d="M180 539 c0 -16 5 -20 27 -17 17 2 29 10 31 21 3 13 -3 17 -27 17
-25 0 -31 -4 -31 -21z"/>
<path d="M480 540 c0 -17 5 -21 28 -18 36 4 36 32 0 36 -23 3 -28 -1 -28 -18z"/>
<path d="M790 550 c0 -5 11 -10 25 -10 14 0 25 5 25 10 0 6 -11 10 -25 10 -14
0 -25 -4 -25 -10z"/>
<path d="M790 501 c0 -16 6 -21 26 -21 33 0 30 33 -4 38 -17 3 -22 -2 -22 -17z"/>
</g>
</svg>
